#!OML:ASF E:\motion texture\Top Level 1\Subject 1\Session 1\male.ASF
:FULLY-SPECIFIED
:DEGREES
114
root 16.5681 17.4674 6.62447 115.181 -83.0518 -109.303
lowerback -2.06203 0.443874 4.39055
upperback -2.32158 0.502451 1.92996
thorax -1.20748 0.178464 -0.472894
lowerneck -1.50565 -15.1472 -17.0794
upperneck 11.2109 -21.6427 13.4209
head 6.98877 -10.7153 4.93879
rclavicle -1.97135e-015 -3.22031e-014
rhumerus -26.1884 2.22599 -86.4691
rradius 82.2519
rwrist -19.5001
rhand -14.7173 -37.4241
rfingers 7.12502
rthumb 11.4374 -67.0922
lclavicle -1.97135e-015 -3.22031e-014
lhumerus -33.4042 15.8219 84.6888
lradius 85.9401
lwrist 43.5628
lhand -15.1096 41.5337
lfingers 7.12502
lthumb 11.0591 71.2223
rfemur 1.15847 3.84509 29.1343
rtibia 36.5798
rfoot -11.1175 -12.4061
rtoes -18.8824
lfemur -29.5624 -3.36661 -8.66888
ltibia 24.2169
lfoot 0.322214 4.76255
ltoes -3.32984
115
root 16.3942 17.4776 6.6487 115.645 -83.1658 -109.981
lowerback -2.01151 0.362109 4.26534
upperback -2.29189 0.398209 1.91803
thorax -1.20988 0.129096 -0.416652
lowerneck -1.6344 -14.9868 -16.96
upperneck 11.6177 -21.3668 12.886
head 7.02168 -10.5962 4.78512
rclavicle 1.03386e-015 -4.64162e-014
rhumerus -26.6754 2.44503 -86.4442
rradius 82.2664
rwrist -19.7268
rhand -14.741 -37.8665
rfingers 7.12502
rthumb 11.4146 -67.5358
lclavicle 1.03386e-015 -4.64162e-014
lhumerus -33.635 15.82 84.6758
lradius 85.9224
lwrist 43.5664
lhand -15.1746 41.7204
lfingers 7.12502
lthumb 10.9964 71.4124
rfemur 0.128601 3.24276 28.6349
rtibia 39.1833
rfoot -8.88601 -12.2802
rtoes -18.0418
lfemur -29.0305 -3.31938 -9.1252
ltibia 24.8712
lfoot -0.0929782 4.50154
ltoes -2.28725
116
root 16.222 17.4881 6.67339 116.384 -83.2824 -110.944
lowerback -1.93301 0.278925 4.13783
upperback -2.26237 0.293749 1.90457
thorax -1.22777 0.0794135 -0.36066
lowerneck -1.86804 -14.8159 -16.8063
upperneck 12.1204 -21.0578 12.2675
head 7.08738 -10.4607 4.59506
rclavicle -7.27583e-016 2.29596e-014
rhumerus -27.1025 2.7598 -86.4266
rradius 82.2732
rwrist -19.9434
rhand -14.6755 -38.3883
rfingers 7.12502
rthumb 11.4777 -68.0541
lclavicle -7.27583e-016 2.29596e-014
lhumerus -33.8286 15.7849 84.6459
lradius 85.893
lwrist 43.5436
lhand -15.1717 41.9312
lfingers 7.12502
lthumb 10.9992 71.6231
rfemur -0.992776 2.63571 28.1092
rtibia 41.7932
rfoot -6.1598 -12.2723
rtoes -16.623
lfemur -28.4156 -3.28303 -9.58057
ltibia 25.4184
lfoot -0.691207 4.31177
ltoes -1.74057
117
root 16.0516 17.4987 6.69844 117.684 -83.4408 -112.476
lowerback -1.82024 0.181077 3.93674
upperback -2.2861 0.173538 1.89649
thorax -1.31987 0.0210094 -0.257936
lowerneck -2.00328 -14.5818 -16.6822
upperneck 12.6574 -20.6698 11.5928
head 7.13624 -10.2992 4.40981
rclavicle 2.44365e-015 1.12313e-014
rhumerus -27.5748 3.23245 -86.412
rradius 82.2959
rwrist -20.1175
rhand -14.58 -38.9843
rfingers 7.12502
rthumb 11.5698 -68.645
lclavicle 2.44365e-015 1.12313e-014
lhumerus -34.1183 15.7446 84.5702
lradius 85.8799
lwrist 43.4992
lhand -15.1135 42.1382
lfingers 7.12502
lthumb 11.0553 71.8271
rfemur -2.17758 2.04693 27.5127
rtibia 44.367
rfoot -3.02956 -12.3505
rtoes -14.7891
lfemur -27.71 -3.27593 -10.0899
ltibia 25.8241
lfoot -1.38438 4.22004
ltoes -1.58403
118
root 15.8832 17.509 6.72364 119.831 -83.6555 -114.856
lowerback -1.75791 0.0896075 3.65543
upperback -2.28809 0.0589533 1.86627
thorax -1.36026 -0.0320309 -0.132673
lowerneck -2.16253 -14.3218 -16.5451
upperneck 13.2082 -20.237 10.8912
head 7.18723 -10.1191 4.2175
rclavicle -1.40469e-015 -2.44008e-014
rhumerus -27.9578 3.79714 -86.3963
rradius 82.3368
rwrist -20.2227
rhand -14.4119 -39.61
rfingers 7.12502
rthumb 11.7319 -69.2615
lclavicle -1.40469e-015 -2.44008e-014
lhumerus -34.3369 15.6479 84.4894
lradius 85.865
lwrist 43.4491
lhand -15.047 42.3456
lfingers 7.12502
lthumb 11.1194 72.031
rfemur -3.4095 1.50709 26.8277
rtibia 46.8942
rfoot 0.305599 -12.4778
rtoes -12.4669
lfemur -26.9276 -3.28513 -10.6906
ltibia 26.0887
lfoot -2.09124 4.22988
ltoes -1.66261
119
root 15.7169 17.5188 6.74889 122.982 -83.9347 -118.236
lowerback -1.64436 0.0092499 3.28577
upperback -2.29594 -0.0373195 1.80021
thorax -1.43381 -0.0747709 0.00565192
lowerneck -2.49915 -14.0597 -16.3707
upperneck 13.8734 -19.7746 10.1304
head 7.29627 -9.92276 3.98818
rclavicle 5.14588e-015 -1.60022e-014
rhumerus -28.2617 4.425 -86.3751
rradius 82.4136
rwrist -20.2794
rhand -14.1467 -40.2231
rfingers 7.12502
rthumb 11.9876 -69.8598
lclavicle 5.14588e-015 -1.60022e-014
lhumerus -34.4873 15.4535 84.4047
lradius 85.8575
lwrist 43.4244
lhand -15.0547 42.5834
lfingers 7.12502
lthumb 11.112 72.2692
rfemur -4.66599 1.01782 26.0443
rtibia 49.3614
rfoot 3.57442 -12.6991
rtoes -9.53633
lfemur -26.0898 -3.30852 -11.4116
ltibia 26.2431
lfoot -2.77602 4.30681
ltoes -1.78965
120
root 15.5527 17.5281 6.77425 127.303 -84.2555 -122.78
lowerback -1.50945 -0.0552552 2.84107
upperback -2.29112 -0.11206 1.69818
thorax -1.5048 -0.105062 0.149544
lowerneck -3.02652 -13.7977 -16.1474
upperneck 14.6348 -19.2817 9.32118
head 7.46131 -9.70948 3.7235
rclavicle 2.70262e-015 -8.49804e-015
rhumerus -28.4557 5.09007 -86.3378
rradius 82.5399
rwrist -20.3236
rhand -13.7934 -40.8112
rfingers 7.12502
rthumb 12.3284 -70.4277
lclavicle 2.70262e-015 -8.49804e-015
lhumerus -34.5215 15.1526 84.324
lradius 85.8466
lwrist 43.4441
lhand -15.0978 42.8257
lfingers 7.12502
lthumb 11.0704 72.5138
rfemur -5.94009 0.57884 25.1769
rtibia 51.7733
rfoot 6.47577 -13.0602
rtoes -6.39767
lfemur -25.2128 -3.33707 -12.2487
ltibia 26.3064
lfoot -3.42926 4.42469
ltoes -1.90792
121
root 15.3905 17.5372 6.79946 132.795 -84.5766 -128.489
lowerback -1.3796 -0.113912 2.34561
upperback -2.28591 -0.180655 1.57458
thorax -1.57157 -0.131279 0.300142
lowerneck -3.60674 -13.5033 -15.8961
upperneck 15.4233 -18.7312 8.48892
head 7.6393 -9.47302 3.45028
rclavicle 3.25374e-015 -2.16116e-014
rhumerus -28.5795 5.80323 -86.2848
rradius 82.7344
rwrist -20.4128
rhand -13.3653 -41.3567
rfingers 7.12502
rthumb 12.741 -70.9479
lclavicle 3.25374e-015 -2.16116e-014
lhumerus -34.4876 14.7692 84.2239
lradius 85.8429
lwrist 43.5104
lhand -15.1758 43.0944
lfingers 7.12502
lthumb 10.9952 72.7864
rfemur -7.2268 0.181781 24.2655
rtibia 54.1281
rfoot 8.75471 -13.6072
rtoes -3.35566
lfemur -24.3054 -3.36501 -13.1685
ltibia 26.2926
lfoot -4.05241 4.57619
ltoes -2.01059
122
root 15.2303 17.5466 6.82437 139.124 -84.8607 -135.03
lowerback -1.21648 -0.155113 1.859
upperback -2.25051 -0.227022 1.42536
thorax -1.62534 -0.146043 0.419921
lowerneck -4.43883 -13.2208 -15.5613
upperneck 16.3056 -18.1576 7.61291
head 7.88524 -9.22136 3.13361
rclavicle -8.76283e-016 9.9206e-015
rhumerus -28.5478 6.47571 -86.198
rradius 83.0022
rwrist -20.5974
rhand -12.8563 -41.8563
rfingers 7.12502
rthumb 13.2317 -71.4163
lclavicle -8.76283e-016 9.9206e-015
lhumerus -34.2733 14.2634 84.1295
lradius 85.8224
lwrist 43.61
lhand -15.2515 43.3913
lfingers 7.12502
lthumb 10.9222 73.0872
rfemur -8.519 -0.20712 23.3587
rtibia 56.4105
rfoot 10.3025 -14.3673
rtoes -0.57098
lfemur -23.3809 -3.3959 -14.1211
ltibia 26.2317
lfoot -4.66149 4.741
ltoes -2.0704
123
root 15.0717 17.5569 6.84848 145.735 -85.0636 -141.851
lowerback -1.10617 -0.20453 1.4112
upperback -2.19955 -0.288219 1.29317
thorax -1.6333 -0.16868 0.535524
lowerneck -5.21051 -12.8746 -15.2356
upperneck 17.1273 -17.5001 6.77159
head 8.10528 -8.93718 2.84562
rclavicle -8.54075e-015 1.04113e-014
rhumerus -28.4432 7.17185 -86.0768
rradius 83.3745
rwrist -20.9069
rhand -12.36 -42.329
rfingers 7.12502
rthumb 13.7101 -71.8574
lclavicle -8.54075e-015 1.04113e-014
lhumerus -33.9834 13.7152 84.0145
lradius 85.8071
lwrist 43.7237
lhand -15.3312 43.7074
lfingers 7.12502
lthumb 10.8453 73.4074
rfemur -9.81383 -0.598267 22.526
rtibia 58.5967
rfoot 11.0882 -15.3054
rtoes 1.67556
lfemur -22.4289 -3.423 -15.0336
ltibia 26.1076
lfoot -5.24482 4.90203
ltoes -2.09839
124
root 14.9148 17.5687 6.87132 151.89 -85.1686 -148.21
lowerback -1.00507 -0.243372 1.05728
upperback -2.12121 -0.336922 1.17748
thorax -1.60805 -0.186567 0.615468
lowerneck -6.08662 -12.5072 -14.8603
upperneck 17.9606 -16.7962 5.92549
head 8.34824 -8.63198 2.54724
rclavicle -6.32617e-015 0
rhumerus -28.2235 7.79772 -85.9018
rradius 83.8678
rwrist -21.3152
rhand -11.8304 -42.7267
rfingers 7.12502
rthumb 14.2204 -72.2199
lclavicle -6.32617e-015 0
lhumerus -33.5516 13.0841 83.8982
lradius 85.7941
lwrist 43.8004
lhand -15.3392 44.0353
lfingers 7.12502
lthumb 10.8376 73.7356
rfemur -11.1185 -0.998326 21.8233
rtibia 60.6571
rfoot 11.1932 -16.3433
rtoes 3.46136
lfemur -21.4652 -3.4356 -15.8452
ltibia 25.9295
lfoot -5.79911 5.05004
ltoes -2.11094
125
root 14.7592 17.5825 6.89274 156.88 -85.1909 -153.398
lowerback -0.865414 -0.289479 0.803466
upperback -2.07808 -0.395407 1.11112
thorax -1.64061 -0.211383 0.690539
lowerneck -6.89909 -12.0827 -14.4803
upperneck 18.7776 -16.0177 5.0697
head 8.57769 -8.30234 2.25875
rclavicle 8.24646e-015 1.58034e-014
rhumerus -28.017 8.39384 -85.6703
rradius 84.513
rwrist -21.7713
rhand -11.3475 -43.0475
rfingers 7.12502
rthumb 14.6857 -72.5074
lclavicle 8.24646e-015 1.58034e-014
lhumerus -33.1298 12.419 83.763
lradius 85.8297
lwrist 43.8311
lhand -15.3539 44.3761
lfingers 7.12502
lthumb 10.8234 74.0772
rfemur -12.4178 -1.41811 21.2847
rtibia 62.5524
rfoot 10.771 -17.4131
rtoes 4.86658
lfemur -20.476 -3.44468 -16.5157
ltibia 25.6867
lfoot -6.32396 5.186
ltoes -2.09736
126
root 14.6047 17.5986 6.91254 160.312 -85.1592 -157.019
lowerback -0.770059 -0.359669 0.653826
upperback -2.06247 -0.487342 1.1098
thorax -1.67629 -0.254637 0.774203
lowerneck -7.48523 -11.5803 -14.1202
upperneck 19.4831 -15.1571 4.22951
head 8.73673 -7.94747 2.00461
rclavicle -1.25887e-014 7.45443e-015
rhumerus -27.8366 8.97746 -85.3891
rradius 85.3123
rwrist -22.1807
rhand -10.9237 -43.2499
rfingers 7.12502
rthumb 15.094 -72.6795
lclavicle -1.25887e-014 7.45443e-015
lhumerus -32.7609 11.771 83.5987
lradius 85.9482
lwrist 43.7779
lhand -15.3753 44.7048
lfingers 7.12502
lthumb 10.8028 74.407
rfemur -13.712 -1.8577 20.9251
rtibia 64.2614
rfoot 10.0171 -18.4478
rtoes 6.01167
lfemur -19.4608 -3.46416 -17.0252
ltibia 25.361
lfoot -6.80215 5.31518
ltoes -2.09064
